# Blender v3.0.0 OBJ File: ''
# www.blender.org
mtllib untitled.mtl
o Cube
v 1.000000 2.468458 -1.000000
v 1.000000 -1.000000 -1.000000
v 1.000000 1.000000 1.000000
v 1.000000 -1.000000 1.000000
v -1.000000 1.000000 -1.000000
v -1.000000 -1.000000 -1.000000
v -1.000000 2.209320 1.000000
v -1.000000 -1.000000 1.000000
v -1.000000 -1.000000 -0.600000
v -1.000000 -1.000000 -0.200000
v -1.000000 -1.000000 0.200000
v -1.000000 -1.000000 0.600000
v 1.000000 1.000000 -0.600000
v 1.000000 1.000000 -0.200000
v 1.000000 2.270589 0.200000
v 1.000000 1.000000 0.600000
v -1.000000 1.000000 0.600000
v -1.000000 1.000000 0.200000
v -1.000000 1.000000 -0.200000
v -1.000000 1.000000 -0.600000
v 1.000000 -1.000000 0.600000
v 1.000000 -1.000000 0.200000
v 1.000000 -1.000000 -0.200000
v 1.000000 -2.036777 -0.600000
vt 0.625000 0.700000
vt 0.875000 0.700000
vt 0.875000 0.750000
vt 0.625000 0.750000
vt 0.375000 0.750000
vt 0.625000 1.000000
vt 0.375000 1.000000
vt 0.375000 0.200000
vt 0.625000 0.200000
vt 0.625000 0.250000
vt 0.375000 0.250000
vt 0.125000 0.700000
vt 0.375000 0.700000
vt 0.125000 0.750000
vt 0.625000 0.500000
vt 0.375000 0.500000
vt 0.625000 0.550000
vt 0.375000 0.550000
vt 0.625000 0.600000
vt 0.375000 0.600000
vt 0.625000 0.650000
vt 0.375000 0.650000
vt 0.125000 0.500000
vt 0.125000 0.550000
vt 0.125000 0.600000
vt 0.125000 0.650000
vt 0.375000 0.000000
vt 0.625000 0.000000
vt 0.625000 0.050000
vt 0.375000 0.050000
vt 0.625000 0.100000
vt 0.375000 0.100000
vt 0.625000 0.150000
vt 0.375000 0.150000
vt 0.875000 0.500000
vt 0.875000 0.550000
vt 0.875000 0.600000
vt 0.875000 0.650000
vn 0.1645 0.5442 -0.8227
vn 0.0000 0.0000 1.0000
vn -1.0000 0.0000 0.0000
vn 0.0000 -1.0000 0.0000
vn 1.0000 0.0000 0.0000
vn 0.0000 0.0000 -1.0000
vn -0.1564 -0.6034 -0.7820
vn -0.1564 -0.6034 0.7820
vn -0.1730 0.4712 0.8649
vn 0.0000 1.0000 0.0000
vn -0.1669 0.5253 -0.8344
vn -0.1669 0.5253 0.8344
usemtl Material
s off
f 16/1/1 17/2/1 7/3/1 3/4/1
f 4/5/2 3/4/2 7/6/2 8/7/2
f 9/8/3 20/9/3 5/10/3 6/11/3
f 12/12/4 21/13/4 4/5/4 8/14/4
f 21/13/5 16/1/5 3/4/5 4/5/5
f 6/11/6 5/10/6 1/15/6 2/16/6
f 2/16/5 1/15/5 13/17/5 24/18/5
f 24/18/5 13/17/5 14/19/5 23/20/5
f 23/20/5 14/19/5 15/21/5 22/22/5
f 22/22/5 15/21/5 16/1/5 21/13/5
f 6/23/7 2/16/7 24/18/7 9/24/7
f 9/24/8 24/18/8 23/20/8 10/25/8
f 10/25/4 23/20/4 22/22/4 11/26/4
f 11/26/4 22/22/4 21/13/4 12/12/4
f 8/27/3 7/28/3 17/29/3 12/30/3
f 12/30/3 17/29/3 18/31/3 11/32/3
f 11/32/3 18/31/3 19/33/3 10/34/3
f 10/34/3 19/33/3 20/9/3 9/8/3
f 1/15/9 5/35/9 20/36/9 13/17/9
f 13/17/10 20/36/10 19/37/10 14/19/10
f 14/19/11 19/37/11 18/38/11 15/21/11
f 15/21/12 18/38/12 17/2/12 16/1/12
